<?xml version="1.0" standalone="no"?>
<!DOCTYPE svg PUBLIC "-//W3C//DTD SVG 20010904//EN"
 "http://www.w3.org/TR/2001/REC-SVG-20010904/DTD/svg10.dtd">
<svg version="1.0" xmlns="http://www.w3.org/2000/svg"
 width="512.000000pt" height="512.000000pt" viewBox="0 0 512.000000 512.000000"
 preserveAspectRatio="xMidYMid meet">
<metadata>
Created by potrace 1.11, written by Peter Selinger 2001-2013
</metadata>
<g transform="translate(0.000000,512.000000) scale(0.100000,-0.100000)"
fill="#000000" stroke="none">
<path d="M3565 4150 c-99 -9 -202 -25 -253 -41 -21 -7 -34 -19 -38 -35 -12
-46 4 -70 73 -115 225 -147 375 -360 407 -581 6 -43 4 -50 -18 -73 -14 -14
-34 -25 -45 -25 -10 0 -57 30 -104 68 -105 82 -172 123 -276 168 -155 67 -407
114 -470 88 -35 -15 -41 -35 -41 -155 0 -236 -69 -539 -173 -762 -58 -124
-144 -256 -173 -268 -55 -20 -95 25 -140 157 -59 176 -92 432 -101 782 -6 233
-6 233 -31 253 -44 34 -197 21 -346 -30 -133 -47 -294 -141 -474 -278 -46 -35
-87 -63 -92 -63 -27 0 -62 23 -71 46 -8 23 -4 39 26 102 106 224 270 427 458
567 87 65 104 92 84 133 -10 21 -27 31 -80 47 -67 19 -72 19 -188 2 -225 -33
-569 -107 -624 -135 -41 -20 -232 -209 -323 -317 -102 -122 -221 -305 -292
-450 -410 -841 -233 -1818 451 -2492 395 -390 877 -624 1469 -714 207 -32 553
-32 760 0 592 90 1074 325 1468 714 358 353 572 766 649 1253 24 152 24 460
-1 609 -81 498 -298 912 -667 1271 -103 100 -224 201 -290 241 -63 39 -290 53
-534 33z m-2974 -1159 c36 -36 36 -55 4 -168 -14 -48 -31 -132 -39 -187 -11
-73 -20 -104 -36 -121 -30 -32 -64 -39 -104 -20 -51 24 -60 57 -47 162 13 97
53 257 77 308 28 61 98 73 145 26z m-83 -765 c8 -8 27 -63 42 -123 16 -61 49
-156 75 -212 42 -92 46 -105 35 -131 -27 -65 -97 -85 -144 -41 -56 52 -147
287 -162 415 -5 43 -3 55 16 79 13 16 32 32 44 36 24 10 74 -3 94 -23z"/>
</g>
</svg>
